<?xml version="1.0" encoding="utf-8"?>
<!-- Generator: Adobe Illustrator 16.0.0, SVG Export Plug-In . SVG Version: 6.00 Build 0)  -->
<!DOCTYPE svg PUBLIC "-//W3C//DTD SVG 1.1//EN" "http://www.w3.org/Graphics/SVG/1.1/DTD/svg11.dtd">
<svg version="1.1" id="Layer_1" xmlns="http://www.w3.org/2000/svg" xmlns:xlink="http://www.w3.org/1999/xlink" x="0px" y="0px"
	 width="200px" height="200px" viewBox="0 0 200 200" enable-background="new 0 0 200 200" xml:space="preserve">
<g>
	<path opacity="0.05" enable-background="new    " d="M151.291,20.833c24.413,16.925,40.367,45.129,40.367,77.083
		c0,51.775-41.958,93.75-93.75,93.75c-31.954,0-60.158-15.949-77.083-40.366c4.321,7.593,9.608,14.579,15.754,20.704
		c17.021,15.467,39.642,24.871,64.454,24.871c52.93,0,95.834-42.908,95.834-95.834c0-24.808-9.4-47.433-24.871-64.454
		C165.875,30.441,158.883,25.154,151.291,20.833L151.291,20.833z M171.996,36.587c16.059,17.138,25.912,40.154,25.912,65.497
		c0,52.93-42.904,95.832-95.833,95.832c-25.338,0-48.358-9.85-65.496-25.912C53.913,189.271,77.758,200,104.158,200
		c52.93,0,95.834-42.908,95.834-95.834C199.992,77.771,189.264,53.917,171.996,36.587z"/>
	<path opacity="0.1" enable-background="new    " d="M172,36.587c15.467,17.021,24.871,39.642,24.871,64.454
		c0,52.93-42.904,95.834-95.834,95.834c-24.808,0-47.433-9.4-64.454-24.871c17.137,16.059,40.154,25.912,65.496,25.912
		c52.929,0,95.833-42.908,95.833-95.832C197.912,76.746,188.063,53.725,172,36.587z"/>
	<path opacity="0.2" enable-background="new    " d="M130.209,9.896c35.895,13.142,61.457,47.571,61.457,88.042
		c0,51.775-41.957,93.75-93.75,93.75c-40.45,0-74.879-25.563-88-61.459c16.349,50.34,70.41,77.896,120.75,61.545
		c39.339-12.772,66.042-49.35,66.23-90.711c-0.063-41.639-27.004-78.473-66.668-91.146L130.209,9.896z"/>
</g>
<g>
	<path fill="#1897D6" d="M100,4.167c52.93,0,95.834,42.904,95.834,95.833c0,52.93-42.904,95.834-95.834,95.834
		c-52.929,0-95.833-42.904-95.833-95.834C4.167,47.071,47.071,4.167,100,4.167z"/>
</g>
<g>
	<path opacity="0.1" enable-background="new    " d="M166.791,31.379c15.467,17.017,24.871,39.642,24.871,64.455
		c0,52.93-42.904,95.833-95.833,95.833c-24.808,0-47.433-9.399-64.454-24.87c17.408,17.879,41.708,29.038,68.621,29.038
		c52.929,0,95.833-42.909,95.833-95.834C195.829,73.075,184.675,48.788,166.791,31.379z"/>
</g>
<path fill="#FFFFFF" d="M135.834,123.834c0,6.627-5.372,12-12,12H76.168c-6.627,0-12-5.373-12-12V76.167c0-6.627,5.373-12,12-12
	h47.666c6.628,0,12,5.373,12,12V123.834z"/>
<path fill="#FFFFFF" d="M75.545,58.454c0,1.381-1.073,2.5-2.397,2.5l0,0c-1.324,0-2.397-1.119-2.397-2.5v-9.788
	c0-1.381,1.073-2.5,2.397-2.5l0,0c1.324,0,2.397,1.119,2.397,2.5V58.454z"/>
<path fill="#FFFFFF" d="M83.217,58.454c0,1.381-1.073,2.5-2.397,2.5l0,0c-1.324,0-2.397-1.119-2.397-2.5v-9.788
	c0-1.381,1.073-2.5,2.397-2.5l0,0c1.324,0,2.397,1.119,2.397,2.5V58.454z"/>
<path fill="#FFFFFF" d="M90.889,58.454c0,1.381-1.073,2.5-2.397,2.5l0,0c-1.324,0-2.397-1.119-2.397-2.5v-9.788
	c0-1.381,1.073-2.5,2.397-2.5l0,0c1.324,0,2.397,1.119,2.397,2.5V58.454z"/>
<path fill="#FFFFFF" d="M98.562,58.454c0,1.381-1.073,2.5-2.397,2.5l0,0c-1.324,0-2.397-1.119-2.397-2.5v-9.788
	c0-1.381,1.073-2.5,2.397-2.5l0,0c1.324,0,2.397,1.119,2.397,2.5V58.454z"/>
<path fill="#FFFFFF" d="M106.233,58.454c0,1.381-1.073,2.5-2.397,2.5l0,0c-1.324,0-2.397-1.119-2.397-2.5v-9.788
	c0-1.381,1.073-2.5,2.397-2.5l0,0c1.324,0,2.397,1.119,2.397,2.5V58.454z"/>
<path fill="#FFFFFF" d="M113.905,58.454c0,1.381-1.073,2.5-2.397,2.5l0,0c-1.324,0-2.397-1.119-2.397-2.5v-9.788
	c0-1.381,1.073-2.5,2.397-2.5l0,0c1.324,0,2.397,1.119,2.397,2.5V58.454z"/>
<path fill="#FFFFFF" d="M121.578,58.454c0,1.381-1.073,2.5-2.397,2.5l0,0c-1.324,0-2.397-1.119-2.397-2.5v-9.788
	c0-1.381,1.073-2.5,2.397-2.5l0,0c1.324,0,2.397,1.119,2.397,2.5V58.454z"/>
<path fill="#FFFFFF" d="M129.25,58.454c0,1.381-1.073,2.5-2.397,2.5l0,0c-1.324,0-2.397-1.119-2.397-2.5v-9.788
	c0-1.381,1.073-2.5,2.397-2.5l0,0c1.324,0,2.397,1.119,2.397,2.5V58.454z"/>
<path fill="#FFFFFF" d="M75.545,151.454c0,1.381-1.073,2.5-2.397,2.5l0,0c-1.324,0-2.397-1.119-2.397-2.5v-9.788
	c0-1.381,1.073-2.5,2.397-2.5l0,0c1.324,0,2.397,1.119,2.397,2.5V151.454z"/>
<path fill="#FFFFFF" d="M83.217,151.454c0,1.381-1.073,2.5-2.397,2.5l0,0c-1.324,0-2.397-1.119-2.397-2.5v-9.788
	c0-1.381,1.073-2.5,2.397-2.5l0,0c1.324,0,2.397,1.119,2.397,2.5V151.454z"/>
<path fill="#FFFFFF" d="M90.889,151.454c0,1.381-1.073,2.5-2.397,2.5l0,0c-1.324,0-2.397-1.119-2.397-2.5v-9.788
	c0-1.381,1.073-2.5,2.397-2.5l0,0c1.324,0,2.397,1.119,2.397,2.5V151.454z"/>
<path fill="#FFFFFF" d="M98.562,151.454c0,1.381-1.073,2.5-2.397,2.5l0,0c-1.324,0-2.397-1.119-2.397-2.5v-9.788
	c0-1.381,1.073-2.5,2.397-2.5l0,0c1.324,0,2.397,1.119,2.397,2.5V151.454z"/>
<path fill="#FFFFFF" d="M106.233,151.454c0,1.381-1.073,2.5-2.397,2.5l0,0c-1.324,0-2.397-1.119-2.397-2.5v-9.788
	c0-1.381,1.073-2.5,2.397-2.5l0,0c1.324,0,2.397,1.119,2.397,2.5V151.454z"/>
<path fill="#FFFFFF" d="M113.905,151.454c0,1.381-1.073,2.5-2.397,2.5l0,0c-1.324,0-2.397-1.119-2.397-2.5v-9.788
	c0-1.381,1.073-2.5,2.397-2.5l0,0c1.324,0,2.397,1.119,2.397,2.5V151.454z"/>
<path fill="#FFFFFF" d="M121.578,151.454c0,1.381-1.073,2.5-2.397,2.5l0,0c-1.324,0-2.397-1.119-2.397-2.5v-9.788
	c0-1.381,1.073-2.5,2.397-2.5l0,0c1.324,0,2.397,1.119,2.397,2.5V151.454z"/>
<path fill="#FFFFFF" d="M129.25,151.454c0,1.381-1.073,2.5-2.397,2.5l0,0c-1.324,0-2.397-1.119-2.397-2.5v-9.788
	c0-1.381,1.073-2.5,2.397-2.5l0,0c1.324,0,2.397,1.119,2.397,2.5V151.454z"/>
<path fill="#FFFFFF" d="M49.106,75.105c-1.381,0-2.5-1.073-2.5-2.397l0,0c0-1.324,1.119-2.397,2.5-2.397h9.788
	c1.381,0,2.5,1.073,2.5,2.397l0,0c0,1.324-1.119,2.397-2.5,2.397H49.106z"/>
<path fill="#FFFFFF" d="M49.106,82.777c-1.381,0-2.5-1.073-2.5-2.397l0,0c0-1.324,1.119-2.397,2.5-2.397h9.788
	c1.381,0,2.5,1.073,2.5,2.397l0,0c0,1.324-1.119,2.397-2.5,2.397H49.106z"/>
<path fill="#FFFFFF" d="M49.106,90.449c-1.381,0-2.5-1.073-2.5-2.397l0,0c0-1.324,1.119-2.397,2.5-2.397h9.788
	c1.381,0,2.5,1.073,2.5,2.397l0,0c0,1.324-1.119,2.397-2.5,2.397H49.106z"/>
<path fill="#FFFFFF" d="M49.106,98.122c-1.381,0-2.5-1.073-2.5-2.397l0,0c0-1.324,1.119-2.397,2.5-2.397h9.788
	c1.381,0,2.5,1.073,2.5,2.397l0,0c0,1.324-1.119,2.397-2.5,2.397H49.106z"/>
<path fill="#FFFFFF" d="M49.106,105.794c-1.381,0-2.5-1.073-2.5-2.397l0,0c0-1.324,1.119-2.397,2.5-2.397h9.788
	c1.381,0,2.5,1.073,2.5,2.397l0,0c0,1.324-1.119,2.397-2.5,2.397H49.106z"/>
<path fill="#FFFFFF" d="M49.106,113.466c-1.381,0-2.5-1.073-2.5-2.397l0,0c0-1.324,1.119-2.397,2.5-2.397h9.788
	c1.381,0,2.5,1.073,2.5,2.397l0,0c0,1.324-1.119,2.397-2.5,2.397H49.106z"/>
<path fill="#FFFFFF" d="M49.106,121.139c-1.381,0-2.5-1.073-2.5-2.397l0,0c0-1.324,1.119-2.397,2.5-2.397h9.788
	c1.381,0,2.5,1.073,2.5,2.397l0,0c0,1.324-1.119,2.397-2.5,2.397H49.106z"/>
<path fill="#FFFFFF" d="M49.106,128.811c-1.381,0-2.5-1.073-2.5-2.397l0,0c0-1.324,1.119-2.397,2.5-2.397h9.788
	c1.381,0,2.5,1.073,2.5,2.397l0,0c0,1.324-1.119,2.397-2.5,2.397H49.106z"/>
<path fill="#FFFFFF" d="M141.106,75.105c-1.381,0-2.5-1.073-2.5-2.397l0,0c0-1.324,1.119-2.397,2.5-2.397h9.788
	c1.381,0,2.5,1.073,2.5,2.397l0,0c0,1.324-1.119,2.397-2.5,2.397H141.106z"/>
<path fill="#FFFFFF" d="M141.106,82.777c-1.381,0-2.5-1.073-2.5-2.397l0,0c0-1.324,1.119-2.397,2.5-2.397h9.788
	c1.381,0,2.5,1.073,2.5,2.397l0,0c0,1.324-1.119,2.397-2.5,2.397H141.106z"/>
<path fill="#FFFFFF" d="M141.106,90.449c-1.381,0-2.5-1.073-2.5-2.397l0,0c0-1.324,1.119-2.397,2.5-2.397h9.788
	c1.381,0,2.5,1.073,2.5,2.397l0,0c0,1.324-1.119,2.397-2.5,2.397H141.106z"/>
<path fill="#FFFFFF" d="M141.106,98.122c-1.381,0-2.5-1.073-2.5-2.397l0,0c0-1.324,1.119-2.397,2.5-2.397h9.788
	c1.381,0,2.5,1.073,2.5,2.397l0,0c0,1.324-1.119,2.397-2.5,2.397H141.106z"/>
<path fill="#FFFFFF" d="M141.106,105.794c-1.381,0-2.5-1.073-2.5-2.397l0,0c0-1.324,1.119-2.397,2.5-2.397h9.788
	c1.381,0,2.5,1.073,2.5,2.397l0,0c0,1.324-1.119,2.397-2.5,2.397H141.106z"/>
<path fill="#FFFFFF" d="M141.106,113.466c-1.381,0-2.5-1.073-2.5-2.397l0,0c0-1.324,1.119-2.397,2.5-2.397h9.788
	c1.381,0,2.5,1.073,2.5,2.397l0,0c0,1.324-1.119,2.397-2.5,2.397H141.106z"/>
<path fill="#FFFFFF" d="M141.106,121.139c-1.381,0-2.5-1.073-2.5-2.397l0,0c0-1.324,1.119-2.397,2.5-2.397h9.788
	c1.381,0,2.5,1.073,2.5,2.397l0,0c0,1.324-1.119,2.397-2.5,2.397H141.106z"/>
<path fill="#FFFFFF" d="M141.106,128.811c-1.381,0-2.5-1.073-2.5-2.397l0,0c0-1.324,1.119-2.397,2.5-2.397h9.788
	c1.381,0,2.5,1.073,2.5,2.397l0,0c0,1.324-1.119,2.397-2.5,2.397H141.106z"/>
<path opacity="0.1" enable-background="new    " d="M137.834,125.834c0,6.627-5.372,12-12,12H78.168c-6.627,0-12-5.373-12-12V78.167
	c0-6.627,5.373-12,12-12h47.666c6.628,0,12,5.373,12,12V125.834z"/>
<path opacity="0.1" enable-background="new    " d="M77.545,60.454c0,1.381-1.073,2.5-2.397,2.5l0,0c-1.324,0-2.397-1.119-2.397-2.5
	v-9.788c0-1.381,1.073-2.5,2.397-2.5l0,0c1.324,0,2.397,1.119,2.397,2.5V60.454z"/>
<path opacity="0.1" enable-background="new    " d="M85.217,60.454c0,1.381-1.073,2.5-2.397,2.5l0,0c-1.324,0-2.397-1.119-2.397-2.5
	v-9.788c0-1.381,1.073-2.5,2.397-2.5l0,0c1.324,0,2.397,1.119,2.397,2.5V60.454z"/>
<path opacity="0.1" enable-background="new    " d="M92.889,60.454c0,1.381-1.073,2.5-2.397,2.5l0,0c-1.324,0-2.397-1.119-2.397-2.5
	v-9.788c0-1.381,1.073-2.5,2.397-2.5l0,0c1.324,0,2.397,1.119,2.397,2.5V60.454z"/>
<path opacity="0.1" enable-background="new    " d="M100.562,60.454c0,1.381-1.073,2.5-2.397,2.5l0,0
	c-1.324,0-2.397-1.119-2.397-2.5v-9.788c0-1.381,1.073-2.5,2.397-2.5l0,0c1.324,0,2.397,1.119,2.397,2.5V60.454z"/>
<path opacity="0.1" enable-background="new    " d="M108.233,60.454c0,1.381-1.073,2.5-2.397,2.5l0,0
	c-1.324,0-2.397-1.119-2.397-2.5v-9.788c0-1.381,1.073-2.5,2.397-2.5l0,0c1.324,0,2.397,1.119,2.397,2.5V60.454z"/>
<path opacity="0.1" enable-background="new    " d="M115.905,60.454c0,1.381-1.073,2.5-2.397,2.5l0,0
	c-1.324,0-2.397-1.119-2.397-2.5v-9.788c0-1.381,1.073-2.5,2.397-2.5l0,0c1.324,0,2.397,1.119,2.397,2.5V60.454z"/>
<path opacity="0.1" enable-background="new    " d="M123.578,60.454c0,1.381-1.073,2.5-2.397,2.5l0,0
	c-1.324,0-2.397-1.119-2.397-2.5v-9.788c0-1.381,1.073-2.5,2.397-2.5l0,0c1.324,0,2.397,1.119,2.397,2.5V60.454z"/>
<path opacity="0.1" enable-background="new    " d="M131.25,60.454c0,1.381-1.073,2.5-2.397,2.5l0,0c-1.324,0-2.397-1.119-2.397-2.5
	v-9.788c0-1.381,1.073-2.5,2.397-2.5l0,0c1.324,0,2.397,1.119,2.397,2.5V60.454z"/>
<path opacity="0.1" enable-background="new    " d="M77.545,153.454c0,1.381-1.073,2.5-2.397,2.5l0,0
	c-1.324,0-2.397-1.119-2.397-2.5v-9.788c0-1.381,1.073-2.5,2.397-2.5l0,0c1.324,0,2.397,1.119,2.397,2.5V153.454z"/>
<path opacity="0.1" enable-background="new    " d="M85.217,153.454c0,1.381-1.073,2.5-2.397,2.5l0,0
	c-1.324,0-2.397-1.119-2.397-2.5v-9.788c0-1.381,1.073-2.5,2.397-2.5l0,0c1.324,0,2.397,1.119,2.397,2.5V153.454z"/>
<path opacity="0.1" enable-background="new    " d="M92.889,153.454c0,1.381-1.073,2.5-2.397,2.5l0,0
	c-1.324,0-2.397-1.119-2.397-2.5v-9.788c0-1.381,1.073-2.5,2.397-2.5l0,0c1.324,0,2.397,1.119,2.397,2.5V153.454z"/>
<path opacity="0.1" enable-background="new    " d="M100.562,153.454c0,1.381-1.073,2.5-2.397,2.5l0,0
	c-1.324,0-2.397-1.119-2.397-2.5v-9.788c0-1.381,1.073-2.5,2.397-2.5l0,0c1.324,0,2.397,1.119,2.397,2.5V153.454z"/>
<path opacity="0.1" enable-background="new    " d="M108.233,153.454c0,1.381-1.073,2.5-2.397,2.5l0,0
	c-1.324,0-2.397-1.119-2.397-2.5v-9.788c0-1.381,1.073-2.5,2.397-2.5l0,0c1.324,0,2.397,1.119,2.397,2.5V153.454z"/>
<path opacity="0.1" enable-background="new    " d="M115.905,153.454c0,1.381-1.073,2.5-2.397,2.5l0,0
	c-1.324,0-2.397-1.119-2.397-2.5v-9.788c0-1.381,1.073-2.5,2.397-2.5l0,0c1.324,0,2.397,1.119,2.397,2.5V153.454z"/>
<path opacity="0.1" enable-background="new    " d="M123.578,153.454c0,1.381-1.073,2.5-2.397,2.5l0,0
	c-1.324,0-2.397-1.119-2.397-2.5v-9.788c0-1.381,1.073-2.5,2.397-2.5l0,0c1.324,0,2.397,1.119,2.397,2.5V153.454z"/>
<path opacity="0.1" enable-background="new    " d="M131.25,153.454c0,1.381-1.073,2.5-2.397,2.5l0,0
	c-1.324,0-2.397-1.119-2.397-2.5v-9.788c0-1.381,1.073-2.5,2.397-2.5l0,0c1.324,0,2.397,1.119,2.397,2.5V153.454z"/>
<path opacity="0.1" enable-background="new    " d="M51.106,77.105c-1.381,0-2.5-1.073-2.5-2.397l0,0c0-1.324,1.119-2.397,2.5-2.397
	h9.788c1.381,0,2.5,1.073,2.5,2.397l0,0c0,1.324-1.119,2.397-2.5,2.397H51.106z"/>
<path opacity="0.1" enable-background="new    " d="M51.106,84.777c-1.381,0-2.5-1.073-2.5-2.397l0,0c0-1.324,1.119-2.397,2.5-2.397
	h9.788c1.381,0,2.5,1.073,2.5,2.397l0,0c0,1.324-1.119,2.397-2.5,2.397H51.106z"/>
<path opacity="0.1" enable-background="new    " d="M51.106,92.449c-1.381,0-2.5-1.073-2.5-2.397l0,0c0-1.324,1.119-2.397,2.5-2.397
	h9.788c1.381,0,2.5,1.073,2.5,2.397l0,0c0,1.324-1.119,2.397-2.5,2.397H51.106z"/>
<path opacity="0.1" enable-background="new    " d="M51.106,100.122c-1.381,0-2.5-1.073-2.5-2.397l0,0
	c0-1.324,1.119-2.397,2.5-2.397h9.788c1.381,0,2.5,1.073,2.5,2.397l0,0c0,1.324-1.119,2.397-2.5,2.397H51.106z"/>
<path opacity="0.1" enable-background="new    " d="M51.106,107.794c-1.381,0-2.5-1.073-2.5-2.397l0,0
	c0-1.324,1.119-2.397,2.5-2.397h9.788c1.381,0,2.5,1.073,2.5,2.397l0,0c0,1.324-1.119,2.397-2.5,2.397H51.106z"/>
<path opacity="0.1" enable-background="new    " d="M51.106,115.466c-1.381,0-2.5-1.073-2.5-2.397l0,0
	c0-1.324,1.119-2.397,2.5-2.397h9.788c1.381,0,2.5,1.073,2.5,2.397l0,0c0,1.324-1.119,2.397-2.5,2.397H51.106z"/>
<path opacity="0.1" enable-background="new    " d="M51.106,123.139c-1.381,0-2.5-1.073-2.5-2.397l0,0
	c0-1.324,1.119-2.397,2.5-2.397h9.788c1.381,0,2.5,1.073,2.5,2.397l0,0c0,1.324-1.119,2.397-2.5,2.397H51.106z"/>
<path opacity="0.1" enable-background="new    " d="M51.106,130.811c-1.381,0-2.5-1.073-2.5-2.397l0,0
	c0-1.324,1.119-2.397,2.5-2.397h9.788c1.381,0,2.5,1.073,2.5,2.397l0,0c0,1.324-1.119,2.397-2.5,2.397H51.106z"/>
<path opacity="0.1" enable-background="new    " d="M143.106,77.105c-1.381,0-2.5-1.073-2.5-2.397l0,0
	c0-1.324,1.119-2.397,2.5-2.397h9.788c1.381,0,2.5,1.073,2.5,2.397l0,0c0,1.324-1.119,2.397-2.5,2.397H143.106z"/>
<path opacity="0.1" enable-background="new    " d="M143.106,84.777c-1.381,0-2.5-1.073-2.5-2.397l0,0
	c0-1.324,1.119-2.397,2.5-2.397h9.788c1.381,0,2.5,1.073,2.5,2.397l0,0c0,1.324-1.119,2.397-2.5,2.397H143.106z"/>
<path opacity="0.1" enable-background="new    " d="M143.106,92.449c-1.381,0-2.5-1.073-2.5-2.397l0,0
	c0-1.324,1.119-2.397,2.5-2.397h9.788c1.381,0,2.5,1.073,2.5,2.397l0,0c0,1.324-1.119,2.397-2.5,2.397H143.106z"/>
<path opacity="0.1" enable-background="new    " d="M143.106,100.122c-1.381,0-2.5-1.073-2.5-2.397l0,0
	c0-1.324,1.119-2.397,2.5-2.397h9.788c1.381,0,2.5,1.073,2.5,2.397l0,0c0,1.324-1.119,2.397-2.5,2.397H143.106z"/>
<path opacity="0.1" enable-background="new    " d="M143.106,107.794c-1.381,0-2.5-1.073-2.5-2.397l0,0
	c0-1.324,1.119-2.397,2.5-2.397h9.788c1.381,0,2.5,1.073,2.5,2.397l0,0c0,1.324-1.119,2.397-2.5,2.397H143.106z"/>
<path opacity="0.1" enable-background="new    " d="M143.106,115.466c-1.381,0-2.5-1.073-2.5-2.397l0,0
	c0-1.324,1.119-2.397,2.5-2.397h9.788c1.381,0,2.5,1.073,2.5,2.397l0,0c0,1.324-1.119,2.397-2.5,2.397H143.106z"/>
<path opacity="0.1" enable-background="new    " d="M143.106,123.139c-1.381,0-2.5-1.073-2.5-2.397l0,0
	c0-1.324,1.119-2.397,2.5-2.397h9.788c1.381,0,2.5,1.073,2.5,2.397l0,0c0,1.324-1.119,2.397-2.5,2.397H143.106z"/>
<path opacity="0.1" enable-background="new    " d="M143.106,130.811c-1.381,0-2.5-1.073-2.5-2.397l0,0
	c0-1.324,1.119-2.397,2.5-2.397h9.788c1.381,0,2.5,1.073,2.5,2.397l0,0c0,1.324-1.119,2.397-2.5,2.397H143.106z"/>
<polygon fill="#1897D6" points="92.751,71.598 92.751,96.936 81.335,96.936 100.005,114.76 118.674,96.936 107.26,96.936 
	107.26,71.598 "/>
<polygon fill="#1897D6" points="78.332,115.598 78.332,128.809 121.672,128.809 121.672,115.598 114.684,115.598 114.684,122.564 
	85.334,122.564 85.334,115.598 "/>
</svg>
