<?xml version="1.0" encoding="utf-8"?>
<!-- Generator: Adobe Illustrator 16.0.0, SVG Export Plug-In . SVG Version: 6.00 Build 0)  -->
<!DOCTYPE svg PUBLIC "-//W3C//DTD SVG 1.1//EN" "http://www.w3.org/Graphics/SVG/1.1/DTD/svg11.dtd">
<svg version="1.1" id="Layer_1" xmlns="http://www.w3.org/2000/svg" xmlns:xlink="http://www.w3.org/1999/xlink" x="0px" y="0px"
	 width="200px" height="200px" viewBox="0 0 200 200" enable-background="new 0 0 200 200" xml:space="preserve">
<g>
	<path opacity="0.05" enable-background="new    " d="M151.291,20.833c24.413,16.925,40.367,45.129,40.367,77.083
		c0,51.775-41.958,93.75-93.75,93.75c-31.954,0-60.158-15.949-77.083-40.366c4.321,7.593,9.608,14.579,15.754,20.704
		c17.021,15.467,39.642,24.871,64.454,24.871c52.93,0,95.834-42.908,95.834-95.834c0-24.808-9.4-47.433-24.871-64.454
		C165.875,30.441,158.883,25.154,151.291,20.833L151.291,20.833z M171.996,36.587c16.059,17.138,25.912,40.154,25.912,65.497
		c0,52.93-42.904,95.832-95.833,95.832c-25.338,0-48.358-9.85-65.496-25.912C53.913,189.271,77.758,200,104.158,200
		c52.93,0,95.834-42.908,95.834-95.834C199.992,77.771,189.264,53.917,171.996,36.587z"/>
	<path opacity="0.1" enable-background="new    " d="M172,36.587c15.467,17.021,24.871,39.642,24.871,64.454
		c0,52.93-42.904,95.834-95.834,95.834c-24.808,0-47.433-9.4-64.454-24.871c17.137,16.059,40.154,25.912,65.496,25.912
		c52.929,0,95.833-42.908,95.833-95.832C197.912,76.746,188.063,53.725,172,36.587z"/>
	<path opacity="0.2" enable-background="new    " d="M130.209,9.896c35.895,13.142,61.457,47.571,61.457,88.042
		c0,51.775-41.957,93.75-93.75,93.75c-40.45,0-74.879-25.563-88-61.459c16.349,50.34,70.41,77.896,120.75,61.545
		c39.339-12.771,66.042-49.35,66.23-90.711c-0.063-41.639-27.004-78.473-66.668-91.146L130.209,9.896z"/>
</g>
<g>
	<path fill="#663FBC" d="M100,4.167c52.93,0,95.834,42.904,95.834,95.833c0,52.93-42.904,95.834-95.834,95.834
		c-52.929,0-95.833-42.904-95.833-95.834C4.167,47.071,47.071,4.167,100,4.167z"/>
</g>
<g>
	<path opacity="0.1" enable-background="new    " d="M166.791,31.379c15.467,17.017,24.871,39.642,24.871,64.455
		c0,52.93-42.904,95.833-95.833,95.833c-24.808,0-47.433-9.399-64.454-24.87c17.408,17.879,41.708,29.038,68.621,29.038
		c52.929,0,95.833-42.909,95.833-95.834C195.829,73.075,184.675,48.788,166.791,31.379z"/>
</g>
<g opacity="0.1" enable-background="new    ">
	<path d="M87.421,93.677h-0.614v4.379h0.614c1.032,0,1.896-0.195,1.896-2.204C89.318,94.486,88.844,93.677,87.421,93.677z"/>
	<path d="M151.586,79.218c1.047,0,1.898-1.321,1.898-2.951c0-1.629-0.853-2.95-1.898-2.95h-6.588v-2.235
		c0-0.441-0.027-0.875-0.066-1.306h6.654c1.047,0,1.898-1.321,1.898-2.951c0-1.63-0.853-2.951-1.898-2.951h-7.432
		c-0.313,0-0.602,0.127-0.859,0.333c-1.503-2.853-3.914-5.143-6.848-6.508v-7.375c0-1.048-1.32-1.898-2.949-1.898
		c-1.631,0-2.953,0.85-2.953,1.898v6.005c-0.105-0.002-0.21-0.016-0.316-0.016h-3.225v-5.989c0-1.048-1.32-1.898-2.949-1.898
		s-2.953,0.85-2.953,1.898v5.989h-3.541v-5.989c0-1.048-1.319-1.898-2.949-1.898c-1.631,0-2.95,0.85-2.95,1.898v5.989h-3.541v-5.989
		c0-1.048-1.32-1.898-2.951-1.898c-1.629,0-2.951,0.85-2.951,1.898v5.989h-3.541v-5.989c0-1.048-1.32-1.898-2.95-1.898
		c-1.631,0-2.951,0.85-2.951,1.898v5.989h-3.542v-5.989c0-1.048-1.321-1.898-2.951-1.898c-1.629,0-2.95,0.85-2.95,1.898v5.989
		h-3.541v-5.989c0-1.048-1.321-1.898-2.951-1.898c-1.63,0-2.951,0.85-2.951,1.898v5.989h-2.327c-0.41,0-0.813,0.028-1.214,0.062
		v-6.05c0-1.048-1.321-1.898-2.951-1.898c-1.629,0-2.95,0.85-2.95,1.898v7.431c0,0.121,0.021,0.238,0.055,0.353
		c-2.492,1.359-4.549,3.415-5.91,5.906c-0.174-0.082-0.355-0.14-0.547-0.14h-7.431c-1.049,0-1.898,1.321-1.898,2.951
		c0,1.63,0.849,2.951,1.898,2.951h6.244c-0.038,0.431-0.066,0.865-0.066,1.306v2.235h-6.178c-1.049,0-1.898,1.321-1.898,2.95
		c0,1.63,0.849,2.951,1.898,2.951h6.178v3.541h-6.178c-1.049,0-1.898,1.322-1.898,2.951s0.849,2.951,1.898,2.951h6.178v3.542h-6.178
		c-1.049,0-1.898,1.321-1.898,2.951c0,1.63,0.849,2.951,1.898,2.951h6.178v3.542h-6.178c-1.049,0-1.898,1.319-1.898,2.949
		c0,1.631,0.849,2.95,1.898,2.95h6.178v3.541h-6.178c-1.049,0-1.898,1.322-1.898,2.951s0.849,2.951,1.898,2.951h6.178v3.541h-6.178
		c-1.049,0-1.898,1.319-1.898,2.95s0.849,2.951,1.898,2.951h6.178v3.318c0,0.075,0.01,0.146,0.011,0.223h-6.189
		c-1.049,0-1.898,1.32-1.898,2.951c0,1.629,0.849,2.951,1.898,2.951h7.431c0.028,0,0.055-0.011,0.083-0.014
		c1.322,2.898,3.542,5.3,6.319,6.83v7.371c0,1.051,1.321,1.897,2.95,1.897c1.63,0,2.951-0.849,2.951-1.897v-5.604
		c0.401,0.033,0.804,0.062,1.214,0.062h2.327v5.543c0,1.052,1.321,1.898,2.951,1.898c1.63,0,2.951-0.848,2.951-1.898v-5.543h3.541
		v5.543c0,1.052,1.321,1.898,2.95,1.898c1.63,0,2.951-0.848,2.951-1.898v-5.543h3.542v5.543c0,1.052,1.32,1.898,2.951,1.898
		c1.63,0,2.95-0.848,2.95-1.898v-5.543h3.541v5.543c0,1.052,1.322,1.898,2.951,1.898c1.631,0,2.951-0.848,2.951-1.898v-5.543h3.541
		v5.543c0,1.052,1.319,1.898,2.95,1.898c1.63,0,2.949-0.848,2.949-1.898v-5.543h3.541v5.543c0,1.052,1.324,1.898,2.953,1.898
		s2.949-0.848,2.949-1.898v-5.543h3.225c0.106,0,0.211-0.014,0.316-0.016v5.559c0,1.052,1.322,1.898,2.953,1.898
		c1.629,0,2.949-0.848,2.949-1.898v-6.93c3.217-1.498,5.801-4.111,7.254-7.352c0.146,0.056,0.296,0.094,0.453,0.094h7.432
		c1.047,0,1.898-1.322,1.898-2.951c0-1.631-0.853-2.951-1.898-2.951h-6.6c0.002-0.074,0.012-0.146,0.012-0.223v-3.318h6.588
		c1.047,0,1.898-1.32,1.898-2.951s-0.853-2.951-1.898-2.951h-6.588v-3.54h6.588c1.047,0,1.898-1.322,1.898-2.951
		s-0.853-2.951-1.898-2.951h-6.588v-3.541h6.588c1.047,0,1.898-1.319,1.898-2.95c0-1.63-0.853-2.949-1.898-2.949h-6.588v-3.542
		h6.588c1.047,0,1.898-1.321,1.898-2.951c0-1.63-0.853-2.951-1.898-2.951h-6.588v-3.542h6.588c1.047,0,1.898-1.321,1.898-2.951
		s-0.853-2.951-1.898-2.951h-6.588v-3.541L151.586,79.218L151.586,79.218z M140.895,126.848c0,7.398-5.996,13.396-13.395,13.396
		H74.29c-7.399,0-13.396-5.996-13.396-13.396V73.636c0-7.398,5.997-13.396,13.396-13.396h53.21c7.398,0,13.395,5.998,13.395,13.396
		V126.848z"/>
	<path d="M74.259,102.91c0,2.482-0.363,3.375-1.255,3.375c-1.367,0-1.506-0.837-1.506-6.667c0-5.662,0.056-6.666,1.506-6.666
		c1.144,0,1.144,1.59,1.144,2.454v1.618h5.411v-1.451c0-3.096-0.697-6.304-6.638-6.304c-7.168,0-7.168,4.184-7.168,10.348
		c0,6.359,0,10.349,7.168,10.349c4.881,0,6.75-2.678,6.75-7.336v-1.256H74.26L74.259,102.91L74.259,102.91z"/>
	<path d="M88.621,89.661h-7.392v19.916h5.579v-7.503h1.701c3.766,0,6.555-1.786,6.555-6.221
		C95.064,91.474,92.888,89.661,88.621,89.661z M87.421,98.056h-0.614v-4.379h0.614c1.422,0,1.896,0.809,1.896,2.175
		C89.318,97.861,88.453,98.056,87.421,98.056z"/>
	<path d="M104.686,103.886c0,1.702-0.225,2.399-1.283,2.399c-1.06,0-1.283-0.697-1.283-2.399V89.661H96.54v13.166
		c0,4.937,1.422,7.141,6.862,7.141c4.937,0,6.861-2.37,6.861-7.141V89.661h-5.578V103.886z"/>
	<rect x="111.794" y="99.228" width="9.037" height="4.518"/>
	<polygon points="122.419,94.179 127.887,94.179 122.001,105.755 122.001,109.576 134.329,109.576 134.329,105.059 128.305,105.059 
		134.357,93.538 134.357,89.661 122.419,89.661 	"/>
</g>
<g>
	<path fill="none" d="M125.5,59.24H72.29c-7.399,0-13.396,5.998-13.396,13.396v53.212c0,7.397,5.997,13.395,13.396,13.395h53.21
		c7.398,0,13.395-5.996,13.395-13.395V72.636C138.895,65.238,132.898,59.24,125.5,59.24z M77.67,101.631
		c0,4.658-1.869,7.336-6.75,7.336c-7.168,0-7.168-3.988-7.168-10.349c0-6.164,0-10.348,7.168-10.348
		c5.941,0,6.638,3.208,6.638,6.304v1.451h-5.411v-1.618c0-0.864,0-2.454-1.144-2.454c-1.45,0-1.506,1.004-1.506,6.666
		c0,5.83,0.14,6.667,1.506,6.667c0.893,0,1.255-0.894,1.255-3.375v-1.535h5.411L77.67,101.631L77.67,101.631z M86.509,101.073
		h-1.701v7.503h-5.579V88.661h7.392c4.268,0,6.443,1.813,6.443,6.192C93.064,99.288,90.274,101.073,86.509,101.073z
		 M108.264,101.826c0,4.77-1.926,7.141-6.861,7.141c-5.439,0-6.862-2.203-6.862-7.141V88.661h5.579v14.225
		c0,1.702,0.223,2.399,1.283,2.399c1.06,0,1.283-0.697,1.283-2.399V88.661h5.578V101.826z M118.831,102.746h-9.037v-4.518h9.037
		V102.746z M132.357,92.538l-6.053,11.521h6.023v4.519H120v-3.821l5.885-11.576h-5.467v-4.519h11.938v3.877H132.357z"/>
	<path fill="none" d="M85.421,92.677h-0.614v4.379h0.614c1.032,0,1.896-0.195,1.896-2.204
		C87.318,93.486,86.844,92.677,85.421,92.677z"/>
	<path fill="#FFFFFF" d="M149.586,78.218c1.047,0,1.898-1.321,1.898-2.951c0-1.629-0.853-2.95-1.898-2.95h-6.588v-2.235
		c0-0.441-0.027-0.875-0.066-1.306h6.654c1.047,0,1.898-1.321,1.898-2.951c0-1.63-0.853-2.951-1.898-2.951h-7.432
		c-0.313,0-0.602,0.127-0.859,0.333c-1.503-2.853-3.914-5.143-6.848-6.508v-7.375c0-1.048-1.32-1.898-2.949-1.898
		c-1.631,0-2.953,0.85-2.953,1.898v6.005c-0.105-0.002-0.21-0.016-0.316-0.016h-3.225v-5.989c0-1.048-1.32-1.898-2.949-1.898
		s-2.953,0.85-2.953,1.898v5.989h-3.541v-5.989c0-1.048-1.319-1.898-2.949-1.898c-1.631,0-2.95,0.85-2.95,1.898v5.989h-3.541v-5.989
		c0-1.048-1.32-1.898-2.951-1.898c-1.629,0-2.951,0.85-2.951,1.898v5.989h-3.541v-5.989c0-1.048-1.32-1.898-2.95-1.898
		c-1.631,0-2.951,0.85-2.951,1.898v5.989h-3.542v-5.989c0-1.048-1.321-1.898-2.951-1.898c-1.629,0-2.95,0.85-2.95,1.898v5.989
		h-3.541v-5.989c0-1.048-1.321-1.898-2.951-1.898c-1.63,0-2.951,0.85-2.951,1.898v5.989h-2.327c-0.41,0-0.813,0.028-1.214,0.062
		v-6.05c0-1.048-1.321-1.898-2.951-1.898c-1.629,0-2.95,0.85-2.95,1.898v7.431c0,0.121,0.021,0.238,0.055,0.353
		c-2.492,1.359-4.549,3.415-5.91,5.906c-0.174-0.082-0.355-0.14-0.547-0.14h-7.431c-1.049,0-1.898,1.321-1.898,2.951
		c0,1.63,0.849,2.951,1.898,2.951h6.244c-0.038,0.431-0.066,0.865-0.066,1.306v2.235h-6.178c-1.049,0-1.898,1.321-1.898,2.95
		c0,1.63,0.849,2.951,1.898,2.951h6.178v3.541h-6.178c-1.049,0-1.898,1.322-1.898,2.951s0.849,2.951,1.898,2.951h6.178v3.542h-6.178
		c-1.049,0-1.898,1.321-1.898,2.951c0,1.63,0.849,2.951,1.898,2.951h6.178v3.542h-6.178c-1.049,0-1.898,1.319-1.898,2.949
		c0,1.631,0.849,2.95,1.898,2.95h6.178v3.541h-6.178c-1.049,0-1.898,1.322-1.898,2.951s0.849,2.951,1.898,2.951h6.178v3.541h-6.178
		c-1.049,0-1.898,1.319-1.898,2.95s0.849,2.951,1.898,2.951h6.178v3.318c0,0.075,0.01,0.146,0.011,0.223h-6.189
		c-1.049,0-1.898,1.32-1.898,2.951c0,1.629,0.849,2.951,1.898,2.951h7.431c0.028,0,0.055-0.011,0.083-0.014
		c1.322,2.898,3.542,5.3,6.319,6.83v7.371c0,1.051,1.321,1.897,2.95,1.897c1.63,0,2.951-0.849,2.951-1.897v-5.604
		c0.401,0.033,0.804,0.062,1.214,0.062h2.327v5.543c0,1.052,1.321,1.898,2.951,1.898c1.63,0,2.951-0.848,2.951-1.898v-5.543h3.541
		v5.543c0,1.052,1.321,1.898,2.95,1.898c1.63,0,2.951-0.848,2.951-1.898v-5.543h3.542v5.543c0,1.052,1.32,1.898,2.951,1.898
		c1.63,0,2.95-0.848,2.95-1.898v-5.543h3.541v5.543c0,1.052,1.322,1.898,2.951,1.898c1.631,0,2.951-0.848,2.951-1.898v-5.543h3.541
		v5.543c0,1.052,1.319,1.898,2.95,1.898c1.63,0,2.949-0.848,2.949-1.898v-5.543h3.541v5.543c0,1.052,1.324,1.898,2.953,1.898
		s2.949-0.848,2.949-1.898v-5.543h3.225c0.106,0,0.211-0.014,0.316-0.016v5.559c0,1.052,1.322,1.898,2.953,1.898
		c1.629,0,2.949-0.848,2.949-1.898v-6.93c3.217-1.498,5.801-4.111,7.254-7.352c0.146,0.056,0.296,0.094,0.453,0.094h7.432
		c1.047,0,1.898-1.322,1.898-2.951c0-1.631-0.853-2.951-1.898-2.951h-6.6c0.002-0.074,0.012-0.146,0.012-0.223v-3.318h6.588
		c1.047,0,1.898-1.32,1.898-2.951s-0.853-2.951-1.898-2.951h-6.588v-3.54h6.588c1.047,0,1.898-1.322,1.898-2.951
		s-0.853-2.951-1.898-2.951h-6.588v-3.541h6.588c1.047,0,1.898-1.319,1.898-2.95c0-1.63-0.853-2.949-1.898-2.949h-6.588v-3.542
		h6.588c1.047,0,1.898-1.321,1.898-2.951c0-1.63-0.853-2.951-1.898-2.951h-6.588v-3.542h6.588c1.047,0,1.898-1.321,1.898-2.951
		s-0.853-2.951-1.898-2.951h-6.588v-3.541L149.586,78.218L149.586,78.218z M138.895,125.848c0,7.398-5.996,13.396-13.395,13.396
		H72.29c-7.399,0-13.396-5.996-13.396-13.396V72.636c0-7.398,5.997-13.396,13.396-13.396h53.21c7.398,0,13.395,5.998,13.395,13.396
		V125.848z"/>
	<path fill="#FFFFFF" d="M72.259,101.91c0,2.482-0.363,3.375-1.255,3.375c-1.367,0-1.506-0.837-1.506-6.667
		c0-5.662,0.056-6.666,1.506-6.666c1.144,0,1.144,1.59,1.144,2.454v1.618h5.411v-1.451c0-3.096-0.697-6.304-6.638-6.304
		c-7.168,0-7.168,4.184-7.168,10.348c0,6.359,0,10.349,7.168,10.349c4.881,0,6.75-2.678,6.75-7.336v-1.255H72.26L72.259,101.91
		L72.259,101.91z"/>
	<path fill="#FFFFFF" d="M86.621,88.661h-7.392v19.916h5.579v-7.503h1.701c3.766,0,6.555-1.786,6.555-6.221
		C93.064,90.474,90.888,88.661,86.621,88.661z M85.421,97.056h-0.614v-4.379h0.614c1.422,0,1.896,0.809,1.896,2.175
		C87.318,96.861,86.453,97.056,85.421,97.056z"/>
	<path fill="#FFFFFF" d="M102.686,102.886c0,1.702-0.225,2.399-1.283,2.399c-1.061,0-1.283-0.697-1.283-2.399V88.661H94.54v13.166
		c0,4.937,1.422,7.141,6.862,7.141c4.937,0,6.861-2.37,6.861-7.141V88.661h-5.578V102.886z"/>
	<rect x="109.794" y="98.228" fill="#FFFFFF" width="9.037" height="4.518"/>
	<polygon fill="#FFFFFF" points="120.419,93.179 125.887,93.179 120.001,104.755 120.001,108.576 132.329,108.576 132.329,104.059 
		126.305,104.059 132.357,92.538 132.357,88.661 120.419,88.661 	"/>
</g>
</svg>
