<?xml version="1.0" encoding="utf-8"?>
<!-- Generator: Adobe Illustrator 16.0.0, SVG Export Plug-In . SVG Version: 6.00 Build 0)  -->
<!DOCTYPE svg PUBLIC "-//W3C//DTD SVG 1.1//EN" "http://www.w3.org/Graphics/SVG/1.1/DTD/svg11.dtd">
<svg version="1.1" id="Layer_1" xmlns="http://www.w3.org/2000/svg" xmlns:xlink="http://www.w3.org/1999/xlink" x="0px" y="0px"
	 width="200px" height="200px" viewBox="0 0 200 200" enable-background="new 0 0 200 200" xml:space="preserve">
<g>
	<path opacity="0.05" enable-background="new    " d="M151.291,20.833c24.413,16.925,40.367,45.129,40.367,77.083
		c0,51.775-41.958,93.75-93.75,93.75c-31.954,0-60.158-15.949-77.083-40.366c4.321,7.593,9.608,14.579,15.754,20.704
		c17.021,15.467,39.642,24.871,64.454,24.871c52.93,0,95.834-42.908,95.834-95.834c0-24.808-9.4-47.433-24.871-64.454
		C165.875,30.441,158.883,25.154,151.291,20.833L151.291,20.833z M171.996,36.587c16.059,17.138,25.912,40.154,25.912,65.497
		c0,52.93-42.904,95.832-95.833,95.832c-25.338,0-48.358-9.85-65.496-25.912C53.913,189.271,77.758,200,104.158,200
		c52.93,0,95.834-42.908,95.834-95.834C199.992,77.771,189.264,53.917,171.996,36.587z"/>
	<path opacity="0.1" enable-background="new    " d="M172,36.587c15.467,17.021,24.871,39.642,24.871,64.454
		c0,52.93-42.904,95.834-95.834,95.834c-24.808,0-47.433-9.4-64.454-24.871c17.137,16.059,40.154,25.912,65.496,25.912
		c52.929,0,95.833-42.908,95.833-95.832C197.912,76.746,188.063,53.725,172,36.587z"/>
	<path opacity="0.2" enable-background="new    " d="M130.209,9.896c35.895,13.142,61.457,47.571,61.457,88.042
		c0,51.775-41.957,93.75-93.75,93.75c-40.45,0-74.879-25.563-88-61.459c16.349,50.34,70.41,77.896,120.75,61.545
		c39.339-12.773,66.042-49.35,66.23-90.711c-0.063-41.639-27.004-78.473-66.668-91.146L130.209,9.896z"/>
</g>
<g>
	<path fill="#DAE4EA" d="M100,4.167c52.93,0,95.834,42.904,95.834,95.833c0,52.93-42.904,95.834-95.834,95.834
		c-52.929,0-95.833-42.904-95.833-95.834C4.167,47.071,47.071,4.167,100,4.167z"/>
</g>
<g>
	<path opacity="0.1" enable-background="new    " d="M166.791,31.379c15.467,17.017,24.871,39.642,24.871,64.455
		c0,52.93-42.904,95.833-95.833,95.833c-24.808,0-47.433-9.399-64.454-24.87c17.408,17.879,41.708,29.038,68.621,29.038
		c52.929,0,95.833-42.909,95.833-95.834C195.829,73.075,184.675,48.788,166.791,31.379z"/>
</g>
<linearGradient id="path7373_1_" gradientUnits="userSpaceOnUse" x1="175.1094" y1="-71.9209" x2="242.1964" y2="-71.9209" gradientTransform="matrix(1.4415 0 0 -1.3989 -194.4024 -0.6076)">
	<stop  offset="0" style="stop-color:#D45800"/>
	<stop  offset="1" style="stop-color:#BF2500"/>
</linearGradient>
<path id="path7373" fill="url(#path7373_1_)" d="M61.833,54.83v90.339l90.339-45.17L61.833,54.83z"/>
</svg>
