<?xml version="1.0" encoding="utf-8"?>
<!-- Generator: Adobe Illustrator 16.0.0, SVG Export Plug-In . SVG Version: 6.00 Build 0)  -->
<!DOCTYPE svg PUBLIC "-//W3C//DTD SVG 1.1//EN" "http://www.w3.org/Graphics/SVG/1.1/DTD/svg11.dtd">
<svg version="1.1" id="Layer_1" xmlns="http://www.w3.org/2000/svg" xmlns:xlink="http://www.w3.org/1999/xlink" x="0px" y="0px"
	 width="200px" height="200px" viewBox="0 0 200 200" enable-background="new 0 0 200 200" xml:space="preserve">
<g>
	<path opacity="0.05" enable-background="new    " d="M151.291,20.833c24.413,16.925,40.367,45.129,40.367,77.083
		c0,51.775-41.958,93.75-93.75,93.75c-31.954,0-60.158-15.949-77.083-40.366c4.321,7.593,9.608,14.579,15.754,20.704
		c17.021,15.467,39.642,24.871,64.454,24.871c52.93,0,95.834-42.908,95.834-95.834c0-24.808-9.4-47.433-24.871-64.454
		C165.875,30.441,158.883,25.154,151.291,20.833L151.291,20.833z M171.996,36.587c16.059,17.138,25.912,40.154,25.912,65.497
		c0,52.93-42.904,95.832-95.833,95.832c-25.338,0-48.358-9.85-65.496-25.912C53.913,189.271,77.758,200,104.158,200
		c52.93,0,95.834-42.908,95.834-95.834C199.992,77.771,189.264,53.917,171.996,36.587z"/>
	<path opacity="0.1" enable-background="new    " d="M172,36.587c15.467,17.021,24.871,39.642,24.871,64.454
		c0,52.93-42.904,95.834-95.834,95.834c-24.808,0-47.433-9.4-64.454-24.871c17.137,16.059,40.154,25.912,65.496,25.912
		c52.929,0,95.833-42.908,95.833-95.832C197.912,76.746,188.063,53.725,172,36.587z"/>
	<path opacity="0.2" enable-background="new    " d="M130.209,9.896c35.895,13.142,61.457,47.571,61.457,88.042
		c0,51.775-41.957,93.75-93.75,93.75c-40.45,0-74.879-25.563-88-61.459c16.349,50.34,70.41,77.896,120.75,61.545
		c39.339-12.771,66.042-49.35,66.23-90.711c-0.063-41.639-27.004-78.473-66.668-91.146L130.209,9.896z"/>
</g>
<g>
	<path fill="#1F5EEA" d="M100,4.167c52.93,0,95.834,42.904,95.834,95.833c0,52.93-42.904,95.834-95.834,95.834
		c-52.929,0-95.833-42.904-95.833-95.834C4.167,47.071,47.071,4.167,100,4.167z"/>
</g>
<g>
	<path opacity="0.1" enable-background="new    " d="M166.791,31.379c15.467,17.017,24.871,39.642,24.871,64.455
		c0,52.93-42.904,95.833-95.833,95.833c-24.808,0-47.433-9.399-64.454-24.87c17.408,17.879,41.708,29.038,68.621,29.038
		c52.929,0,95.833-42.909,95.833-95.834C195.829,73.075,184.675,48.788,166.791,31.379z"/>
</g>
<path opacity="0.1" fill-rule="evenodd" clip-rule="evenodd" enable-background="new    " d="M164.552,99.34
	c-0.096,0.513-0.209,0.266-0.293,0.016c-1.753-5.797-7.33-10.034-13.939-10.034c-6.589,0-12.153,4.212-13.923,9.981
	c-0.081,0.303-0.328,0.227-0.332-0.001c-0.143-6.154-4.894-10.211-11.086-10.173c-3.134,0.019-5.685,1.228-6.631,2.548
	c-0.076,0.115-0.266,0.151-0.266-0.115l0,0v-8.861h-6.707v20.765l0,0c0,3.118-1.906,7.455-6.401,7.455
	c-4.116,0-6.098-2.358-6.098-6.998l0,0v-8.443h10.518v-6.389H98.876v-6.39h-6.707V99.32l0,0c0,0.399-0.248,0.399-0.395,0.018
	c-1.731-5.815-7.277-10.084-13.78-10.084c-4.362,0-8.143,1.822-10.809,4.834c-0.109,0.099-0.186,0.003-0.167-0.13l0,0v-4.867l0,0
	c-11.29,0-13.826,6.365-14.428,10.324c-0.053,0.324-0.376,0.305-0.447-0.021c-1.673-5.854-7.072-10.141-13.476-10.141
	c-2.679,0-5.182,1.129-7.315,3.11c0,0-0.001-9.663,0-9.663c0.002,0-6.708,0-6.708,0l0,0l0.012,20.537l0,0
	c0.018,7.723,6.273,13.983,14.012,13.983c6.485,0,11.941-4.398,13.539-10.368c0.064-0.174,0.18-0.155,0.18-0.002l0,0v9.62h6.706
	v-13.158l0,0c0-6.582,3.844-7.643,6.745-7.806c0.19-0.01,0.196,0.076,0.126,0.177c-1.432,2.179-2.263,4.771-2.263,7.554
	c0,7.723,6.399,13.983,14.293,13.983c6.489,0,12.007-4.232,13.751-10.031c0.101-0.511,0.41-0.51,0.455,0.003
	c0.348,4.333,3.676,9.888,12.163,9.888c2.837,0,5.482-1.573,6.491-2.728c0.254-0.238,0.521-0.238,0.521,0.218l0,0v1.9h6.707v-14.945
	l0,0c0.152-2.814,1.601-6.389,5.525-6.389c4.916,0,5.754,3.231,5.754,4.449l0,0v16.885h6.707v-9.26l0,0
	c0-0.266,0.285-0.228,0.317-0.074c1.759,5.788,7.331,10.017,13.934,10.017c6.587,0,11.966-3.857,13.13-9.916l0,0l-6.251-0.005l0,0
	c-1.286,2.804-3.884,4.719-6.879,4.719c-3.566,0-6.57-2.736-7.466-6.435l0,0l7.009,0.001h14.405v10.953h6.706v-13.158l0,0
	c0-7.529,5.486-7.834,8.383-7.834l0,0v-6.389l0,0C168.139,89.091,165.302,95.375,164.552,99.34L164.552,99.34L164.552,99.34
	L164.552,99.34z M38.286,111.116c-4.345,0-7.868-3.515-7.868-7.852c0-4.338,3.522-7.853,7.868-7.853s7.868,3.515,7.868,7.853
	C46.153,107.602,42.631,111.116,38.286,111.116L38.286,111.116L38.286,111.116L38.286,111.116z M77.849,111.116
	c-4.345,0-7.868-3.515-7.868-7.852c0-4.338,3.523-7.853,7.868-7.853c4.346,0,7.868,3.515,7.868,7.853
	C85.717,107.602,82.194,111.116,77.849,111.116L77.849,111.116L77.849,111.116L77.849,111.116z M150.154,100.011L150.154,100.011
	l-6.74-0.001l0,0c1.134-3.227,3.929-5.508,7.198-5.508c3.268,0,6.063,2.283,7.198,5.509l0,0H150.154L150.154,100.011
	L150.154,100.011z"/>
<path fill-rule="evenodd" clip-rule="evenodd" fill="#FFFFFF" d="M162.552,97.34c-0.096,0.513-0.209,0.266-0.293,0.016
	c-1.753-5.797-7.33-10.034-13.939-10.034c-6.589,0-12.153,4.212-13.923,9.981c-0.081,0.303-0.328,0.227-0.332-0.001
	c-0.143-6.154-4.894-10.211-11.086-10.173c-3.134,0.019-5.685,1.228-6.631,2.548c-0.076,0.115-0.266,0.151-0.266-0.115l0,0v-8.861
	h-6.707v20.765l0,0c0,3.118-1.906,7.455-6.401,7.455c-4.116,0-6.098-2.358-6.098-6.998l0,0v-8.443h10.518v-6.389H96.876v-6.39
	h-6.707V97.32l0,0c0,0.399-0.248,0.399-0.395,0.018c-1.731-5.815-7.277-10.084-13.78-10.084c-4.362,0-8.143,1.822-10.809,4.834
	c-0.109,0.099-0.186,0.003-0.167-0.13l0,0v-4.867l0,0c-11.29,0-13.826,6.365-14.428,10.324c-0.053,0.324-0.376,0.305-0.447-0.021
	c-1.673-5.854-7.072-10.141-13.476-10.141c-2.679,0-5.182,1.129-7.315,3.11c0,0-0.001-9.663,0-9.663c0.002,0-6.708,0-6.708,0l0,0
	l0.012,20.537l0,0c0.018,7.723,6.273,13.983,14.012,13.983c6.485,0,11.941-4.398,13.539-10.368c0.064-0.174,0.18-0.155,0.18-0.002
	l0,0v9.62h6.706v-13.158l0,0c0-6.582,3.844-7.643,6.745-7.806c0.19-0.01,0.196,0.076,0.126,0.177
	c-1.432,2.179-2.263,4.771-2.263,7.554c0,7.723,6.399,13.983,14.293,13.983c6.489,0,12.007-4.232,13.751-10.031
	c0.101-0.511,0.41-0.51,0.455,0.003c0.348,4.333,3.676,9.888,12.163,9.888c2.837,0,5.482-1.573,6.491-2.728
	c0.254-0.238,0.521-0.238,0.521,0.218l0,0v1.9h6.707V99.526l0,0c0.152-2.814,1.601-6.389,5.525-6.389
	c4.916,0,5.754,3.231,5.754,4.449l0,0v16.885h6.707v-9.26l0,0c0-0.266,0.285-0.228,0.317-0.074
	c1.759,5.788,7.331,10.017,13.934,10.017c6.587,0,11.966-3.857,13.13-9.916l0,0l-6.251-0.005l0,0
	c-1.286,2.804-3.884,4.719-6.879,4.719c-3.566,0-6.57-2.736-7.466-6.435l0,0l7.009,0.001h14.405v10.953h6.706v-13.158l0,0
	c0-7.529,5.486-7.834,8.383-7.834l0,0v-6.389l0,0C166.139,87.091,163.302,93.375,162.552,97.34L162.552,97.34L162.552,97.34
	L162.552,97.34z M36.286,109.116c-4.345,0-7.868-3.515-7.868-7.852c0-4.338,3.522-7.853,7.868-7.853s7.868,3.515,7.868,7.853
	C44.153,105.602,40.631,109.116,36.286,109.116L36.286,109.116L36.286,109.116L36.286,109.116z M75.849,109.116
	c-4.345,0-7.868-3.515-7.868-7.852c0-4.338,3.523-7.853,7.868-7.853c4.346,0,7.868,3.515,7.868,7.853
	C83.717,105.602,80.194,109.116,75.849,109.116L75.849,109.116L75.849,109.116L75.849,109.116z M148.154,98.011L148.154,98.011
	l-6.74-0.001l0,0c1.134-3.227,3.929-5.508,7.198-5.508c3.268,0,6.063,2.283,7.198,5.509l0,0H148.154L148.154,98.011L148.154,98.011z
	"/>
</svg>
