<?xml version="1.0" encoding="UTF-8" standalone="no"?>
<!-- Generator: Adobe Illustrator 16.0.0, SVG Export Plug-In . SVG Version: 6.00 Build 0)  -->

<svg
   xmlns:dc="http://purl.org/dc/elements/1.1/"
   xmlns:cc="http://creativecommons.org/ns#"
   xmlns:rdf="http://www.w3.org/1999/02/22-rdf-syntax-ns#"
   xmlns:svg="http://www.w3.org/2000/svg"
   xmlns="http://www.w3.org/2000/svg"
   xmlns:sodipodi="http://sodipodi.sourceforge.net/DTD/sodipodi-0.dtd"
   xmlns:inkscape="http://www.inkscape.org/namespaces/inkscape"
   version="1.1"
   id="Layer_1"
   x="0px"
   y="0px"
   width="200px"
   height="200px"
   viewBox="0 0 200 200"
   enable-background="new 0 0 200 200"
   xml:space="preserve"
   inkscape:version="0.48.3.1 r9886"
   sodipodi:docname="com_americangirl_catalogue.svg"><metadata
   id="metadata25"><rdf:RDF><cc:Work
       rdf:about=""><dc:format>image/svg+xml</dc:format><dc:type
         rdf:resource="http://purl.org/dc/dcmitype/StillImage" /></cc:Work></rdf:RDF></metadata><defs
   id="defs23" /><sodipodi:namedview
   pagecolor="#ffffff"
   bordercolor="#666666"
   borderopacity="1"
   objecttolerance="10"
   gridtolerance="10"
   guidetolerance="10"
   inkscape:pageopacity="0"
   inkscape:pageshadow="2"
   inkscape:window-width="1440"
   inkscape:window-height="838"
   id="namedview21"
   showgrid="false"
   inkscape:zoom="4.72"
   inkscape:cx="109.07131"
   inkscape:cy="108.10598"
   inkscape:window-x="-6"
   inkscape:window-y="-6"
   inkscape:window-maximized="1"
   inkscape:current-layer="Layer_1" />
<g
   id="g3">
	<path
   opacity="0.05"
   enable-background="new    "
   d="M151.291,20.833c24.413,16.925,40.367,45.129,40.367,77.083   c0,51.775-41.958,93.75-93.75,93.75c-31.954,0-60.158-15.949-77.083-40.366c4.321,7.593,9.608,14.579,15.754,20.704   c17.021,15.467,39.642,24.871,64.454,24.871c52.93,0,95.834-42.908,95.834-95.834c0-24.808-9.4-47.433-24.871-64.454   C165.875,30.441,158.883,25.154,151.291,20.833L151.291,20.833z M171.996,36.587c16.059,17.138,25.912,40.154,25.912,65.497   c0,52.93-42.904,95.832-95.833,95.832c-25.338,0-48.358-9.85-65.496-25.912C53.913,189.271,77.758,200,104.158,200   c52.93,0,95.834-42.908,95.834-95.834C199.992,77.771,189.264,53.917,171.996,36.587z"
   id="path5" />
	<path
   opacity="0.1"
   enable-background="new    "
   d="M172,36.587c15.467,17.021,24.871,39.642,24.871,64.454   c0,52.93-42.904,95.834-95.834,95.834c-24.808,0-47.433-9.4-64.454-24.871c17.137,16.059,40.154,25.912,65.496,25.912   c52.929,0,95.833-42.908,95.833-95.832C197.912,76.746,188.063,53.725,172,36.587z"
   id="path7" />
	<path
   opacity="0.2"
   enable-background="new    "
   d="M130.209,9.896c35.895,13.142,61.457,47.571,61.457,88.042   c0,51.775-41.957,93.75-93.75,93.75c-40.45,0-74.879-25.563-88-61.459c16.349,50.34,70.41,77.896,120.75,61.545   c39.339-12.774,66.042-49.35,66.23-90.711c-0.063-41.639-27.004-78.473-66.668-91.146L130.209,9.896z"
   id="path9" />
</g>
<g
   id="g11">
	<path
   fill="#C6074C"
   d="M100,4.167c52.93,0,95.834,42.904,95.834,95.833c0,52.93-42.904,95.834-95.834,95.834   c-52.929,0-95.833-42.904-95.833-95.834C4.167,47.071,47.071,4.167,100,4.167z"
   id="path13" />
</g>
<g
   id="g15">
	<path
   opacity="0.1"
   enable-background="new    "
   d="M166.791,31.379c15.467,17.017,24.871,39.642,24.871,64.455   c0,52.93-42.904,95.833-95.833,95.833c-24.808,0-47.433-9.399-64.454-24.87c17.408,17.879,41.708,29.038,68.621,29.038   c52.929,0,95.833-42.909,95.833-95.834C195.829,73.075,184.675,48.788,166.791,31.379z"
   id="path17" />
</g>
<path
   id="path33_1_"
   connector-curvature="0"
   enable-background="new    "
   d="m 158.08946,60.889271 -46.195,12.403 -29.665002,-37.805 -2.746,47.463 -44.142,16.916 44.026,17.914999 1.498,47.826 30.952002,-37.497 44.699,12.576 -24.982,-40.034 26.555,-39.762999 0,0 z m -32.001,57.409999 -19.767,-5.563 -13.688002,16.583 -0.663,-21.151 -19.47,-7.922 19.521,-7.479999 1.216,-20.99 13.118002,16.719 20.43,-5.485 -11.743,17.583999 11.046,17.705 z"
   inkscape:connector-curvature="0"
   style="opacity:0.1" />
<path
   id="path33"
   connector-curvature="0"
   d="m 156.17746,58.356271 -46.195,12.403 -29.665002,-37.805 -2.745,47.463 -44.142,16.917 44.026,17.913999 1.498,47.827 30.952002,-37.497 44.699,12.575 -24.982,-40.033999 26.554,-39.763 0,0 z m -32.001,57.408999 -19.767,-5.562 -13.688002,16.583 -0.663,-21.152 -19.47,-7.919999 19.521,-7.481 1.213,-20.99 13.119002,16.719 20.429,-5.485 -11.743,17.584 11.049,17.703999 z"
   inkscape:connector-curvature="0"
   style="fill:#ffffff" />
</svg>