<?xml version="1.0" encoding="UTF-8" standalone="no"?>
<!-- Generator: Adobe Illustrator 16.0.0, SVG Export Plug-In . SVG Version: 6.00 Build 0)  -->

<svg
   xmlns:dc="http://purl.org/dc/elements/1.1/"
   xmlns:cc="http://creativecommons.org/ns#"
   xmlns:rdf="http://www.w3.org/1999/02/22-rdf-syntax-ns#"
   xmlns:svg="http://www.w3.org/2000/svg"
   xmlns="http://www.w3.org/2000/svg"
   xmlns:sodipodi="http://sodipodi.sourceforge.net/DTD/sodipodi-0.dtd"
   xmlns:inkscape="http://www.inkscape.org/namespaces/inkscape"
   version="1.1"
   id="Layer_1"
   x="0px"
   y="0px"
   width="200px"
   height="200px"
   viewBox="0 0 200 200"
   enable-background="new 0 0 200 200"
   xml:space="preserve"
   inkscape:version="0.48.3.1 r9886"
   sodipodi:docname="yuku_mp3recorder_full.svg"
   inkscape:export-filename="C:\Users\Felicity\Desktop\yuku_mp3recorder_full.png"
   inkscape:export-xdpi="86.400002"
   inkscape:export-ydpi="86.400002"><metadata
   id="metadata47"><rdf:RDF><cc:Work
       rdf:about=""><dc:format>image/svg+xml</dc:format><dc:type
         rdf:resource="http://purl.org/dc/dcmitype/StillImage" /><dc:title></dc:title></cc:Work></rdf:RDF></metadata><defs
   id="defs45" /><sodipodi:namedview
   pagecolor="#ffffff"
   bordercolor="#666666"
   borderopacity="1"
   objecttolerance="10"
   gridtolerance="10"
   guidetolerance="10"
   inkscape:pageopacity="0"
   inkscape:pageshadow="2"
   inkscape:window-width="640"
   inkscape:window-height="480"
   id="namedview43"
   showgrid="false"
   inkscape:zoom="1.18"
   inkscape:cx="100"
   inkscape:cy="100"
   inkscape:window-x="0"
   inkscape:window-y="0"
   inkscape:window-maximized="0"
   inkscape:current-layer="Layer_1" />
<g
   id="g3">
	<path
   opacity="0.05"
   enable-background="new    "
   d="M151.291,20.833c24.413,16.925,40.367,45.129,40.367,77.083   c0,51.775-41.958,93.75-93.75,93.75c-31.954,0-60.158-15.949-77.083-40.366c4.321,7.592,9.608,14.579,15.754,20.704   c17.021,15.467,39.642,24.871,64.454,24.871c52.93,0,95.834-42.908,95.834-95.834c0-24.808-9.4-47.433-24.871-64.454   C165.875,30.441,158.883,25.154,151.291,20.833L151.291,20.833z M171.996,36.587c16.059,17.138,25.912,40.154,25.912,65.497   c0,52.929-42.904,95.832-95.833,95.832c-25.338,0-48.358-9.85-65.496-25.912C53.913,189.271,77.758,200,104.158,200   c52.93,0,95.834-42.908,95.834-95.834C199.992,77.771,189.263,53.917,171.996,36.587z"
   id="path5" />
	<path
   opacity="0.1"
   enable-background="new    "
   d="M172,36.587c15.467,17.021,24.871,39.642,24.871,64.454   c0,52.93-42.904,95.834-95.834,95.834c-24.808,0-47.433-9.4-64.454-24.871c17.137,16.059,40.154,25.912,65.496,25.912   c52.929,0,95.833-42.908,95.833-95.832C197.912,76.746,188.063,53.725,172,36.587z"
   id="path7" />
	<path
   opacity="0.2"
   enable-background="new    "
   d="M130.209,9.896c35.895,13.142,61.457,47.571,61.457,88.042   c0,51.775-41.957,93.75-93.75,93.75c-40.45,0-74.879-25.563-88-61.459c16.349,50.34,70.41,77.895,120.75,61.545   c39.339-12.775,66.042-49.35,66.23-90.711c-0.063-41.639-27.004-78.473-66.668-91.146L130.209,9.896z"
   id="path9" />
</g>
<g
   id="g11">
	<path
   fill="#84CE25"
   d="M100,4.167c52.93,0,95.834,42.904,95.834,95.833c0,52.93-42.904,95.834-95.834,95.834   c-52.929,0-95.833-42.904-95.833-95.834C4.167,47.071,47.071,4.167,100,4.167z"
   id="path13" />
</g>
<g
   id="g15">
	<g
   id="g17">
		<g
   transform="translate(1,1)"
   id="g19">
			<g
   opacity="0.1"
   id="g21">
				<g
   id="g23">
					<path
   fill-opacity="0.902"
   d="M103.037,53.167c-11.458,0-20.704,9.246-20.704,20.704V74H99v4.167H82.333v4.167H99V86.5H82.333       v4.167H99v4.167H82.333v8.462c0,11.458,9.246,20.704,20.704,20.704h0.263c11.458,0,20.704-9.246,20.704-20.704v-8.462h-16.666       v-4.167h16.666V86.5h-16.666v-4.167h16.666v-4.167h-16.666V74h16.666v-0.129c0-11.458-9.246-20.704-20.704-20.704"
   id="path25" />
					<path
   fill-opacity="0.902"
   d="M69.833,99c0,0,0.604,35.513,29.167,35.416v10.418H86.5v8.332h33.334v-8.332h-12.5v-10.418       C135.896,134.68,136.5,99,136.5,99h-6.867c0,0,0.163,29.166-26.467,29.166C76.538,128.166,76.7,99,76.7,99"
   id="path27" />
				</g>
			</g>
		</g>
	</g>
</g>
<g
   id="g29">
	<g
   id="g31">
		<g
   id="g33">
			<path
   fill="#F9F9F9"
   fill-opacity="0.902"
   d="M99.871,50c-11.458,0-20.704,9.246-20.704,20.704v0.129h16.667V75H79.167v4.167     h16.667v4.167H79.167V87.5h16.667v4.167H79.167v8.462c0,11.459,9.246,20.705,20.704,20.705h0.263     c11.458,0,20.705-9.246,20.705-20.705v-8.462h-16.667V87.5h16.667v-4.167h-16.667v-4.167h16.667V75h-16.667v-4.167h16.667v-0.129     c0-11.458-9.246-20.704-20.705-20.704"
   id="path35" />
			<path
   fill="#F9F9F9"
   fill-opacity="0.902"
   d="M66.667,95.833c0,0,0.604,35.512,29.167,35.417v10.416h-12.5V150h33.333v-8.334     h-12.5V131.25c28.563,0.263,29.168-35.417,29.168-35.417h-6.867c0,0,0.162,29.167-26.467,29.167     c-26.629,0-26.467-29.167-26.467-29.167"
   id="path37" />
		</g>
	</g>
</g>
<g
   id="g39">
	<path
   opacity="0.1"
   enable-background="new    "
   d="M166.791,31.379c15.467,17.017,24.871,39.642,24.871,64.455   c0,52.929-42.904,95.833-95.833,95.833c-24.808,0-47.433-9.399-64.454-24.87c17.408,17.879,41.708,29.038,68.621,29.038   c52.929,0,95.833-42.909,95.833-95.834C195.829,73.075,184.675,48.788,166.791,31.379z"
   id="path41" />
</g>
</svg>